Input #0, mov,mp4,m4a,3gp,3g2,mj2, from '/home/hbattu/projects/huberman-gpt/huberman-audio/mp3/tmpnvqe8llz.mp4':
  Metadata:
    major_brand     : dash
    minor_version   : 0
    compatible_brands: iso6mp41
    creation_time   : 2022-04-20T01:28:34.000000Z
  Duration: 02:35:11.55, start: 0.000000, bitrate: 129 kb/s
    Stream #0:0(eng): Audio: aac (LC) (mp4a / 0x6134706D), 44100 Hz, stereo, fltp, 0 kb/s (default)
    Metadata:
      creation_time   : 2022-04-20T01:28:34.000000Z
      handler_name    : ISO Media file produced by Google Inc.
Stream mapping:
  Stream #0:0 -> #0:0 (aac (native) -> mp3 (libmp3lame))
Press [q] to stop, [?] for help
[graph_0_in_0_0 @ 0x561a61e0a0c0] tb:1/44100 samplefmt:fltp samplerate:44100 chlayout:0x3
Output #0, mp3, to '../huberman-audio/mp3/gMRph_BvHB4.mp3':
  Metadata:
    major_brand     : dash
    minor_version   : 0
    compatible_brands: iso6mp41
    TSSE            : Lavf58.29.100
    Stream #0:0(eng): Audio: mp3 (libmp3lame), 44100 Hz, stereo, fltp, delay 1105 (default)
    Metadata:
      creation_time   : 2022-04-20T01:28:34.000000Z
      handler_name    : ISO Media file produced by Google Inc.
      encoder         : Lavc58.54.100 libmp3lame
No more output streams to write to, finishing.
size=  145494kB time=02:35:11.55 bitrate= 128.0kbits/s speed=85.9x    
[AVIOContext @ 0x561a61cf5900] Statistics: 0 seeks, 217 writeouts
video:0kB audio:145493kB subtitle:0kB other streams:0kB global headers:0kB muxing overhead: 0.000232%
Input file #0 (/home/hbattu/projects/huberman-gpt/huberman-audio/mp3/tmpnvqe8llz.mp4):
  Input stream #0:0 (audio): 401015 packets read (148984801 bytes); 401015 frames decoded (410639360 samples); 
  Total: 401015 packets (148984801 bytes) demuxed
Output file #0 (../huberman-audio/mp3/gMRph_BvHB4.mp3):
  Output stream #0:0 (audio): 356458 frames encoded (410639360 samples); 356459 packets muxed (148985312 bytes); 
  Total: 356459 packets (148985312 bytes) muxed
[AVIOContext @ 0x561a61d1e780] Statistics: 2 seeks, 570 writeouts
[AVIOContext @ 0x561a61cfe880] Statistics: 150697753 bytes read, 0 seeks
